<?xml version="1.0" encoding="utf-8"?><svg xmlns="http://www.w3.org/2000/svg" xmlns:xlink="http://www.w3.org/1999/xlink"><symbol viewBox="0 0 24 24" id="arrow-down" xmlns="http://www.w3.org/2000/svg"><path d="M7.41 8.29688L12 12.8769L16.59 8.29688L18 9.70687L12 15.7069L6 9.70687L7.41 8.29688Z"/></symbol><symbol viewBox="0 0 24 24" id="bag" xmlns="http://www.w3.org/2000/svg"><desc>Created with Pixso.</desc><defs><clipPath id="bclip6_1219"><rect width="24.000000" height="24.000000" fill-opacity="0"/></clipPath></defs><rect width="24.000000" height="24.000000" fill-opacity="0"/><g clip-path="url(#bclip6_1219)"><path d="M18 6L16 6C16 3.78 14.21 2 12 2C9.79 2 8 3.78 8 6L6 6C4.9 6 4 6.89 4 8L4 20C4 21.1 4.9 22 6 22L18 22C19.09 22 20 21.1 20 20L20 8C20 6.89 19.09 6 18 6ZM12 4C13.09 4 14 4.89 14 6L10 6C10 4.89 10.9 4 12 4ZM18 20L6 20L6 8L8 8L8 10C8 10.55 8.45 11 9 11C9.54 11 10 10.55 10 10L10 8L14 8L14 10C14 10.55 14.45 11 15 11C15.54 11 16 10.55 16 10L16 8L18 8L18 20Z" fill-opacity="1.000000" fill-rule="nonzero"/></g></symbol><symbol viewBox="0 0 25 24" id="close" xmlns="http://www.w3.org/2000/svg"><path d="M19.5 6.41L18.09 5L12.5 10.59L6.91 5L5.5 6.41L11.09 12L5.5 17.59L6.91 19L12.5 13.41L18.09 19L19.5 17.59L13.91 12L19.5 6.41Z"/></symbol><symbol viewBox="0 0 24 24" id="favorite" xmlns="http://www.w3.org/2000/svg"><path d="M11.2232 19.1147L11.2217 19.1134C8.62662 16.7602 6.55384 14.878 5.1178 13.1223C3.69324 11.3807 3 9.88574 3 8.32422C3 5.7965 4.97228 3.82422 7.5 3.82422C8.93721 3.82422 10.3322 4.49815 11.2386 5.56256L12 6.45662L12.7614 5.56256C13.6678 4.49815 15.0628 3.82422 16.5 3.82422C19.0277 3.82422 21 5.7965 21 8.32422C21 9.88575 20.3068 11.3807 18.882 13.1239C17.4459 14.8808 15.3734 16.7651 12.7786 19.1232C12.7782 19.1235 12.7778 19.1238 12.7775 19.1241L12.0026 19.8242L11.2232 19.1147Z" stroke-width="2"/></symbol><symbol viewBox="0 0 25 24" id="menu" xmlns="http://www.w3.org/2000/svg"><path d="M3.5 18H21.5V16H3.5V18ZM3.5 13H21.5V11H3.5V13ZM3.5 6V8H21.5V6H3.5Z"/></symbol><symbol viewBox="0 0 24 24" id="person" xmlns="http://www.w3.org/2000/svg"><desc>Created with Pixso.</desc><defs><clipPath id="fclip6_1213"><rect width="24.000000" height="24.000000" fill-opacity="0"/></clipPath></defs><rect width="24.000000" height="24.000000" fill-opacity="0"/><g clip-path="url(#fclip6_1213)"><path d="M16 8.5C16 10.71 14.21 12.5 12 12.5C9.79 12.5 8 10.71 8 8.5L8 5C8 4.17 8.66 3.5 9.5 3.5C10.01 3.5 10.48 3.76 10.75 4.17C11.01 3.76 11.48 3.5 12 3.5C12.51 3.5 12.98 3.76 13.25 4.17C13.51 3.76 13.98 3.5 14.5 3.5C15.33 3.5 16 4.17 16 5L16 8.5ZM14 8.5L14 6L10 6L10 8.5C10 9.6 10.9 10.5 12 10.5C13.09 10.5 14 9.6 14 8.5ZM12 13.5C14.53 13.5 16.7 14.19 18.38 15.05C19.38 15.57 20 16.6 20 17.71L20 20.5L4 20.5L4 17.71C4 16.6 4.61 15.57 5.61 15.05C7.29 14.19 9.46 13.5 12 13.5ZM6 17.71L6 18.5L18 18.5L18 17.71C18 17.33 17.79 17 17.48 16.83C16.29 16.23 14.37 15.5 12 15.5C9.62 15.5 7.7 16.23 6.51 16.83C6.2 17 6 17.33 6 17.71Z" fill-opacity="1.000000" fill-rule="evenodd"/></g></symbol><symbol viewBox="0 0 24 24" id="search" xmlns="http://www.w3.org/2000/svg"><desc>Created with Pixso.</desc><defs><clipPath id="gclip6_1210"><rect width="24.000000" height="24.000000" fill-opacity="0"/></clipPath></defs><rect width="24.000000" height="24.000000" fill-opacity="0"/><g clip-path="url(#gclip6_1210)"><path d="M15.75 14.25L14.96 14.25L14.68 13.98C15.66 12.84 16.25 11.36 16.25 9.75C16.25 6.16 13.34 3.25 9.75 3.25C6.16 3.25 3.25 6.16 3.25 9.75C3.25 13.34 6.16 16.25 9.75 16.25C11.36 16.25 12.84 15.66 13.98 14.68L14.25 14.96L14.25 15.75L19.25 20.74L20.74 19.25L15.75 14.25ZM9.75 14.25C7.26 14.25 5.25 12.24 5.25 9.75C5.25 7.26 7.26 5.25 9.75 5.25C12.24 5.25 14.25 7.26 14.25 9.75C14.25 12.24 12.24 14.25 9.75 14.25Z" fill-opacity="1.000000" fill-rule="nonzero"/></g></symbol></svg>