<svg width="184.000000" height="46.000000" viewBox="0 0 184 46" fill="none" xmlns="http://www.w3.org/2000/svg" xmlns:xlink="http://www.w3.org/1999/xlink">
	<desc>
			Created with Pixso.
	</desc>
	<defs>
		<clipPath id="clip6_1226">
			<rect width="8.333333" height="8.333333" transform="translate(161.416016 19.335938)" fill="white" fill-opacity="0"/>
		</clipPath>
	</defs>
	<path d="M69.07 25.57C70.01 26.19 71.11 26.5 72.38 26.5C73.1 26.5 73.76 26.37 74.38 26.12C75 25.87 75.54 25.56 76 25.17Q76.68 24.58 76.99 23.99L76.99 26.12L81.8 26.12L81.8 4.1L76.94 4.1L76.94 14.9C76.86 14.6 76.61 14.28 76.2 13.92Q75.6 13.38 74.62 13Q73.64 12.6 72.38 12.6C71.11 12.6 70.01 12.91 69.07 13.54Q68.58 13.86 68.17 14.26Q67.39 15.03 66.88 16.07Q66.84 16.15 66.8 16.23Q66.11 17.74 66.11 19.56Q66.11 21.32 66.76 22.8Q66.81 22.93 66.88 23.06Q67.37 24.04 68.11 24.78Q68.54 25.22 69.07 25.57ZM149.78 26.12L154.66 26.12L154.66 4.1L149.78 4.1L149.78 26.12ZM88.53 9.47C89.06 10.01 89.71 10.28 90.48 10.28C91.24 10.28 91.89 10.01 92.43 9.47C92.98 8.93 93.25 8.29 93.25 7.54C93.25 7.03 93.12 6.56 92.86 6.15C92.61 5.73 92.27 5.4 91.86 5.16C91.44 4.9 90.98 4.77 90.48 4.77C89.72 4.77 89.07 5.05 88.53 5.6C87.99 6.15 87.73 6.79 87.73 7.54C87.73 8.29 87.99 8.93 88.53 9.47ZM38.57 13.22Q37.43 12.6 35.94 12.6C35.18 12.6 34.46 12.72 33.78 12.98C33.12 13.24 32.57 13.56 32.12 13.96C31.68 14.34 31.39 14.72 31.24 15.11C31.04 14.66 30.77 14.24 30.42 13.86C30.09 13.48 29.67 13.17 29.14 12.95Q28.36 12.6 27.19 12.6Q26.32 12.6 25.53 12.84Q25.34 12.89 25.16 12.96C24.52 13.2 23.98 13.49 23.54 13.84C23.12 14.18 22.84 14.52 22.71 14.85L22.71 12.98L17.88 12.98L17.88 26.12L22.71 26.12L22.71 19.14Q22.71 18.18 23 17.51C23.2 17.05 23.49 16.7 23.86 16.45C24.24 16.2 24.67 16.07 25.16 16.07Q25.93 16.07 26.38 16.45Q26.61 16.63 26.76 16.92C27.07 17.48 27.22 18.22 27.22 19.14L27.22 26.12L31.69 26.12L31.69 19.14Q31.69 18.2 31.99 17.52C32.19 17.06 32.48 16.71 32.86 16.45C33.23 16.2 33.66 16.07 34.15 16.07Q35.05 16.07 35.51 16.51Q35.69 16.68 35.8 16.92Q36.22 17.76 36.22 19.14L36.22 26.12L41 26.12L41 18.4Q41 16.39 40.34 15.11C39.92 14.25 39.33 13.62 38.57 13.22ZM49.87 25.62C50.99 26.21 52.27 26.5 53.71 26.5C55.15 26.5 56.41 26.21 57.51 25.62C58.61 25.02 59.47 24.21 60.09 23.17Q60.23 22.94 60.35 22.69Q61.02 21.3 61.02 19.59Q61.02 17.87 60.35 16.48Q60.23 16.24 60.09 16C59.47 14.95 58.61 14.12 57.51 13.51Q55.87 12.6 53.71 12.6Q51.6 12.6 49.95 13.46Q49.91 13.49 49.87 13.51C48.76 14.12 47.88 14.95 47.24 16Q47.08 16.27 46.94 16.56Q46.3 17.92 46.3 19.59Q46.3 21.25 46.94 22.62Q47.08 22.9 47.24 23.17C47.88 24.21 48.76 25.02 49.87 25.62ZM120.09 13.22C119.33 12.8 118.45 12.6 117.46 12.6C116.69 12.6 115.97 12.72 115.3 12.98C114.64 13.24 114.09 13.56 113.64 13.96C113.2 14.34 112.91 14.72 112.76 15.11C112.56 14.66 112.28 14.24 111.94 13.86Q111.45 13.28 110.66 12.95C110.14 12.71 109.49 12.6 108.71 12.6C108 12.6 107.32 12.72 106.68 12.96C106.04 13.2 105.5 13.49 105.06 13.84C104.64 14.18 104.36 14.52 104.23 14.85L104.23 12.98L99.4 12.98L99.4 26.12L104.23 26.12L104.23 19.14C104.23 18.5 104.33 17.95 104.52 17.51C104.72 17.05 105.01 16.7 105.38 16.45C105.76 16.2 106.19 16.07 106.68 16.07Q107.45 16.07 107.9 16.45Q108.13 16.63 108.28 16.92C108.59 17.48 108.74 18.22 108.74 19.14L108.74 26.12L113.21 26.12L113.21 19.14Q113.21 18.2 113.51 17.52C113.71 17.06 114 16.71 114.37 16.45C114.75 16.2 115.18 16.07 115.67 16.07C116.49 16.07 117.04 16.35 117.32 16.92C117.6 17.48 117.73 18.22 117.73 19.14L117.73 26.12L122.52 26.12L122.52 18.4C122.52 17.06 122.3 15.96 121.86 15.11C121.44 14.25 120.84 13.62 120.09 13.22ZM138.73 23.99L138.73 26.12L143.51 26.12L143.51 12.98L138.68 12.98L138.68 14.9C138.53 14.6 138.26 14.28 137.88 13.92Q137.3 13.38 136.38 13C135.76 12.73 135.04 12.6 134.22 12.6C132.94 12.6 131.82 12.91 130.86 13.54Q130.3 13.9 129.84 14.37Q129.11 15.1 128.62 16.07C128.08 17.11 127.82 18.28 127.82 19.56C127.82 20.84 128.08 22 128.62 23.06Q129.08 23.97 129.77 24.68Q130.26 25.18 130.86 25.57C131.82 26.19 132.94 26.5 134.22 26.5Q135.5 26.5 136.46 26.02Q137.42 25.52 137.99 24.92C138.39 24.51 138.63 24.2 138.73 23.99ZM87.98 12.98L87.98 26.12L92.85 26.12L92.85 12.98L87.98 12.98ZM75.24 22.38Q74.62 22.68 73.87 22.68C73.3 22.68 72.79 22.54 72.33 22.28Q72.09 22.13 71.87 21.94Q71.51 21.62 71.26 21.17C71 20.69 70.88 20.15 70.88 19.56C70.88 18.96 71 18.42 71.26 17.95Q71.54 17.46 71.94 17.11Q72.12 16.96 72.33 16.84C72.79 16.56 73.3 16.42 73.87 16.42Q74.58 16.42 75.16 16.69Q75.3 16.75 75.44 16.84C75.91 17.1 76.27 17.48 76.54 17.95C76.81 18.42 76.94 18.96 76.94 19.56C76.94 20.15 76.81 20.69 76.54 21.17C76.27 21.64 75.91 22.01 75.44 22.28Q75.34 22.33 75.24 22.38ZM133 21.17C132.72 20.69 132.58 20.15 132.58 19.56C132.58 18.96 132.72 18.42 133 17.95C133.28 17.48 133.64 17.1 134.1 16.84C134.57 16.56 135.09 16.42 135.66 16.42Q136.4 16.42 137 16.72Q137.1 16.77 137.21 16.84C137.66 17.1 138.01 17.48 138.26 17.95C138.53 18.42 138.66 18.96 138.66 19.56C138.66 20.15 138.53 20.69 138.26 21.17C138.01 21.64 137.66 22.01 137.21 22.28Q137.14 22.31 137.07 22.35Q136.45 22.68 135.66 22.68C135.09 22.68 134.57 22.54 134.1 22.28C133.64 22.01 133.28 21.64 133 21.17ZM55.15 22.13C54.74 22.38 54.26 22.5 53.71 22.5C53.15 22.5 52.67 22.38 52.25 22.13C51.84 21.89 51.52 21.54 51.29 21.09C51.07 20.64 50.95 20.14 50.95 19.57C50.95 19 51.07 18.48 51.29 18.04Q51.53 17.57 51.9 17.24Q52.06 17.1 52.25 16.98C52.67 16.72 53.15 16.6 53.71 16.6Q54.49 16.6 55.08 16.94Q55.11 16.96 55.15 16.98Q55.36 17.11 55.54 17.28Q55.87 17.6 56.09 18.04C56.31 18.48 56.43 19 56.43 19.57C56.43 20.14 56.31 20.64 56.09 21.09C55.87 21.54 55.55 21.89 55.15 22.13Z" fill="#404040" fill-opacity="1.000000" fill-rule="evenodd"/>
	<mask id="mask_6_1224" fill="white">
		<path d="" fill="" fill-opacity="1.000000" fill-rule="nonzero"/>
	</mask>
	<path d="" fill="#748C70" fill-opacity="1.000000" fill-rule="nonzero" mask="url(#mask_6_1224)"/>
	<path d="" clip-rule="evenodd" fill="#FFFFFF" fill-opacity="1.000000" fill-rule="evenodd"/>
	<path d="M96.71 40.59L97.59 40.59L97.59 33.72L96.71 33.72L96.71 40.59ZM113.28 36.54C113.03 36.43 112.77 36.37 112.5 36.37Q112.17 36.37 111.89 36.48Q111.86 36.49 111.82 36.51C111.61 36.6 111.44 36.72 111.31 36.85C111.18 36.98 111.1 37.11 111.07 37.22L111.07 33.72L110.19 33.72L110.19 40.59L111.07 40.59L111.07 38.33C111.07 38.08 111.13 37.86 111.25 37.67C111.37 37.47 111.52 37.32 111.7 37.21Q111.91 37.08 112.13 37.05Q112.2 37.04 112.28 37.04Q112.6 37.04 112.83 37.19Q112.92 37.24 113 37.32C113.19 37.5 113.28 37.8 113.28 38.21L113.28 40.59L114.16 40.59L114.16 38.04C114.16 37.64 114.08 37.32 113.91 37.08Q113.75 36.83 113.52 36.68Q113.41 36.6 113.28 36.54ZM116.47 34.92C116.59 35.03 116.72 35.09 116.88 35.09Q117 35.09 117.11 35.04Q117.21 35 117.29 34.92C117.4 34.81 117.46 34.67 117.46 34.52Q117.46 34.4 117.41 34.3Q117.4 34.26 117.38 34.23C117.32 34.14 117.25 34.07 117.16 34.02C117.08 33.97 116.98 33.94 116.88 33.94C116.72 33.94 116.59 34 116.47 34.11C116.36 34.22 116.31 34.36 116.31 34.52C116.31 34.67 116.36 34.81 116.47 34.92ZM106.32 36.49L105.51 36.49L105.51 37.24L106.32 37.24L106.32 39.5Q106.32 40.12 106.63 40.42Q106.63 40.42 106.64 40.43C106.85 40.62 107.12 40.72 107.44 40.72Q107.72 40.72 107.92 40.66C108.06 40.62 108.17 40.58 108.26 40.54Q108.39 40.47 108.42 40.44L108.07 39.8C108.06 39.82 108.02 39.85 107.95 39.9C107.88 39.94 107.78 39.97 107.65 39.97C107.51 39.97 107.39 39.91 107.31 39.8C107.22 39.68 107.18 39.5 107.18 39.27L107.18 37.24L108.24 37.24L108.24 36.49L107.18 36.49L107.18 34.81L106.32 34.81L106.32 36.49ZM62.35 40.43C62.68 40.62 63.06 40.72 63.48 40.72C63.9 40.72 64.27 40.62 64.6 40.43C64.92 40.24 65.18 39.98 65.36 39.66C65.54 39.33 65.64 38.97 65.64 38.56C65.64 38.15 65.54 37.78 65.36 37.45C65.18 37.12 64.92 36.85 64.6 36.66C64.27 36.47 63.9 36.37 63.48 36.37C63.06 36.37 62.68 36.47 62.35 36.66C62.02 36.85 61.77 37.12 61.58 37.45C61.39 37.78 61.3 38.15 61.3 38.56Q61.3 39.06 61.49 39.48Q61.53 39.57 61.58 39.66C61.77 39.98 62.02 40.24 62.35 40.43ZM73.31 36.57C73.09 36.44 72.83 36.37 72.53 36.37Q72.17 36.37 71.88 36.5Q71.86 36.51 71.85 36.52C71.65 36.61 71.48 36.73 71.35 36.88Q71.15 37.09 71.08 37.31C71.04 37.17 70.97 37.03 70.88 36.89C70.78 36.74 70.65 36.62 70.48 36.52C70.31 36.42 70.11 36.37 69.86 36.37Q69.51 36.37 69.22 36.5C69.03 36.58 68.87 36.67 68.75 36.79C68.63 36.91 68.55 37.02 68.51 37.12L68.51 36.49L67.65 36.49L67.65 40.59L68.51 40.59L68.51 38.38Q68.51 37.91 68.66 37.62Q68.8 37.32 69.03 37.18C69.19 37.09 69.35 37.05 69.53 37.05Q69.75 37.05 69.91 37.14Q70.07 37.22 70.18 37.38C70.33 37.6 70.41 37.94 70.41 38.38L70.41 40.59L71.22 40.59L71.22 38.38Q71.22 37.92 71.37 37.63C71.47 37.43 71.6 37.28 71.76 37.19C71.92 37.09 72.08 37.05 72.26 37.05C72.58 37.05 72.81 37.16 72.93 37.38C73.05 37.6 73.12 37.94 73.12 38.38L73.12 40.59L73.98 40.59L73.98 38.21Q73.98 37.58 73.8 37.17C73.69 36.9 73.52 36.7 73.31 36.57ZM76.88 39.4C76.78 39.19 76.73 38.97 76.72 38.72L79.97 38.72C79.97 38.69 79.97 38.65 79.98 38.58C79.98 38.51 79.98 38.46 79.98 38.43C79.98 38.01 79.9 37.64 79.73 37.34C79.57 37.03 79.34 36.79 79.04 36.63C78.74 36.46 78.39 36.37 77.99 36.37C77.55 36.37 77.17 36.46 76.86 36.65C76.55 36.84 76.31 37.09 76.15 37.41Q76.14 37.43 76.13 37.45Q75.9 37.91 75.9 38.5Q75.9 39.15 76.16 39.65C76.34 39.98 76.58 40.25 76.9 40.43C77.23 40.62 77.61 40.72 78.05 40.72C78.37 40.72 78.65 40.68 78.88 40.62C79.1 40.55 79.3 40.46 79.45 40.34C79.61 40.22 79.75 40.08 79.86 39.92L79.43 39.4C79.38 39.48 79.3 39.57 79.19 39.68C79.07 39.78 78.93 39.87 78.75 39.95C78.57 40.02 78.36 40.06 78.1 40.06Q77.65 40.06 77.34 39.88C77.14 39.76 76.99 39.6 76.88 39.4ZM85.02 36.54C84.77 36.43 84.51 36.37 84.24 36.37C84 36.37 83.78 36.42 83.57 36.51C83.36 36.6 83.19 36.72 83.06 36.85C82.93 36.98 82.84 37.11 82.81 37.22L82.81 36.49L81.94 36.49L81.94 40.59L82.81 40.59L82.81 38.33C82.81 38.08 82.87 37.86 82.99 37.67C83.11 37.47 83.25 37.32 83.43 37.21C83.62 37.1 83.81 37.04 84 37.04C84.3 37.04 84.55 37.13 84.74 37.32C84.93 37.5 85.02 37.8 85.02 38.21L85.02 40.59L85.9 40.59L85.9 38.04C85.9 37.64 85.82 37.32 85.65 37.08C85.49 36.83 85.28 36.65 85.02 36.54ZM94.1 39.87C93.94 39.95 93.73 40 93.47 40C93.25 40 93.05 39.94 92.84 39.83C92.64 39.71 92.48 39.54 92.35 39.33C92.22 39.11 92.15 38.84 92.15 38.54C92.15 38.24 92.22 37.98 92.35 37.76C92.48 37.54 92.64 37.38 92.84 37.27C93.05 37.15 93.25 37.09 93.47 37.09C93.64 37.09 93.8 37.11 93.92 37.16C94.05 37.21 94.15 37.26 94.22 37.32C94.3 37.37 94.35 37.41 94.38 37.43L94.81 36.81C94.77 36.77 94.69 36.72 94.56 36.65C94.44 36.58 94.28 36.52 94.09 36.46C93.9 36.4 93.69 36.37 93.44 36.37C93.07 36.37 92.72 36.45 92.39 36.62C92.07 36.79 91.81 37.03 91.61 37.36C91.41 37.68 91.31 38.07 91.31 38.54C91.31 39.01 91.41 39.4 91.61 39.73C91.81 40.05 92.07 40.3 92.39 40.47C92.72 40.63 93.07 40.72 93.44 40.72C93.69 40.72 93.91 40.69 94.1 40.64Q94.4 40.56 94.58 40.46C94.71 40.39 94.79 40.34 94.82 40.32L94.4 39.69C94.36 39.73 94.26 39.79 94.1 39.87ZM100.73 40.49Q101.18 40.72 101.74 40.72C102.16 40.72 102.53 40.62 102.86 40.43C103.18 40.24 103.44 39.98 103.62 39.66Q103.66 39.58 103.7 39.5Q103.9 39.07 103.9 38.56Q103.9 38.05 103.71 37.63Q103.67 37.53 103.62 37.45C103.44 37.12 103.18 36.85 102.86 36.66C102.53 36.47 102.16 36.37 101.74 36.37Q101.2 36.37 100.75 36.58Q100.68 36.62 100.61 36.66C100.28 36.85 100.03 37.12 99.84 37.45Q99.78 37.55 99.74 37.65Q99.56 38.07 99.56 38.56Q99.56 39.06 99.75 39.48Q99.79 39.57 99.84 39.66C100.03 39.98 100.28 40.24 100.61 40.43Q100.67 40.46 100.73 40.49ZM122.71 36.54C122.46 36.43 122.2 36.37 121.93 36.37C121.69 36.37 121.46 36.42 121.26 36.51C121.05 36.6 120.88 36.72 120.75 36.85C120.61 36.98 120.53 37.11 120.5 37.22L120.5 36.49L119.63 36.49L119.63 40.59L120.5 40.59L120.5 38.33Q120.5 38.03 120.61 37.79Q120.64 37.73 120.68 37.67C120.79 37.47 120.94 37.32 121.12 37.21C121.31 37.1 121.5 37.04 121.69 37.04C121.99 37.04 122.24 37.13 122.43 37.32Q122.71 37.59 122.71 38.21L122.71 40.59L123.59 40.59L123.59 38.04C123.59 37.64 123.51 37.32 123.34 37.08C123.18 36.83 122.97 36.65 122.71 36.54ZM129.03 40.52L129.03 40.66C129.03 40.92 128.98 41.16 128.87 41.38C128.76 41.59 128.61 41.76 128.4 41.88C128.2 42.01 127.95 42.07 127.66 42.07C127.36 42.07 127.12 42.04 126.93 41.97C126.74 41.9 126.59 41.81 126.48 41.71Q126.32 41.57 126.23 41.44L125.66 41.98C125.78 42.14 125.93 42.29 126.12 42.41C126.32 42.53 126.55 42.62 126.81 42.69C127.07 42.76 127.37 42.79 127.69 42.79C128.1 42.79 128.47 42.71 128.8 42.55C129.13 42.39 129.39 42.16 129.58 41.85Q129.88 41.39 129.88 40.71L129.88 36.49L129.02 36.49L129.02 37.26C129 37.16 128.92 37.04 128.78 36.9C128.65 36.76 128.48 36.64 128.26 36.53C128.04 36.42 127.79 36.37 127.49 36.37Q127.1 36.37 126.75 36.5Q126.6 36.56 126.45 36.65C126.15 36.83 125.9 37.08 125.72 37.41C125.54 37.73 125.45 38.11 125.45 38.55C125.45 38.98 125.54 39.36 125.72 39.69C125.9 40.01 126.15 40.27 126.45 40.45C126.76 40.63 127.11 40.72 127.49 40.72C127.79 40.72 128.05 40.66 128.27 40.54C128.49 40.42 128.67 40.29 128.79 40.14C128.92 39.99 129 39.88 129.03 39.8L129.03 40.52ZM55.62 40.59L56.66 37.52L57.71 40.59L58.61 40.59L59.72 36.49L58.79 36.49L58.04 39.65L57.02 36.57L56.3 36.57L55.27 39.65L54.53 36.49L53.6 36.49L54.72 40.59L55.62 40.59ZM116.43 36.49L116.43 40.59L117.3 40.59L117.3 36.49L116.43 36.49ZM79.03 37.62C79.11 37.78 79.15 37.93 79.15 38.07L76.75 38.07C76.77 37.92 76.81 37.77 76.9 37.61C76.98 37.44 77.11 37.3 77.29 37.19C77.47 37.08 77.7 37.02 78 37.02C78.28 37.02 78.51 37.08 78.67 37.2C78.84 37.31 78.96 37.45 79.03 37.62ZM126.5 39.32C126.37 39.1 126.31 38.84 126.31 38.55C126.31 38.25 126.37 37.99 126.5 37.78C126.63 37.56 126.8 37.39 127.01 37.27C127.22 37.15 127.44 37.09 127.68 37.09C127.93 37.09 128.16 37.15 128.36 37.28C128.56 37.4 128.72 37.57 128.83 37.79Q129.01 38.11 129.01 38.55Q129.01 38.98 128.83 39.31Q128.71 39.53 128.53 39.69Q128.45 39.76 128.36 39.82C128.16 39.93 127.93 40 127.68 40C127.44 40 127.22 39.94 127.01 39.82C126.8 39.7 126.63 39.53 126.5 39.32ZM64.18 39.79C63.98 39.91 63.75 39.97 63.48 39.97C63.21 39.97 62.98 39.91 62.78 39.79C62.58 39.66 62.42 39.49 62.31 39.28Q62.3 39.27 62.29 39.26Q62.14 38.94 62.14 38.55Q62.14 38.16 62.29 37.84Q62.3 37.83 62.31 37.82C62.42 37.6 62.58 37.43 62.78 37.31C62.98 37.18 63.21 37.12 63.48 37.12C63.75 37.12 63.98 37.18 64.18 37.31C64.38 37.43 64.53 37.6 64.64 37.82Q64.65 37.83 64.65 37.84Q64.81 38.16 64.81 38.55Q64.81 38.94 64.65 39.26Q64.65 39.27 64.64 39.28C64.53 39.49 64.38 39.66 64.18 39.79ZM102.44 39.79C102.24 39.91 102.01 39.97 101.74 39.97C101.47 39.97 101.24 39.91 101.04 39.79C100.84 39.66 100.68 39.49 100.57 39.28Q100.56 39.27 100.55 39.26Q100.4 38.94 100.4 38.55Q100.4 38.16 100.55 37.84Q100.56 37.83 100.57 37.82C100.68 37.6 100.84 37.43 101.04 37.31C101.24 37.18 101.47 37.12 101.74 37.12Q102.1 37.12 102.37 37.27Q102.4 37.28 102.44 37.31C102.64 37.43 102.79 37.6 102.9 37.82Q102.91 37.83 102.91 37.84Q103.07 38.16 103.07 38.55Q103.07 38.94 102.91 39.26Q102.91 39.27 102.9 39.28C102.79 39.49 102.64 39.66 102.44 39.79Z" fill="#404040" fill-opacity="1.000000" fill-rule="evenodd"/>
</svg>
