<?xml version="1.0" encoding="utf-8"?><svg viewBox="0 0 25 24" xmlns="http://www.w3.org/2000/svg" xmlns:xlink="http://www.w3.org/1999/xlink"><style>:root>svg{display:none}:root>svg:target{display:block}</style><svg fill="none" viewBox="0 0 24 24" id="arrow-down" xmlns="http://www.w3.org/2000/svg"><path d="m7.41 8.297 4.59 4.58 4.59-4.58L18 9.707l-6 6-6-6 1.41-1.41Z" fill="#0C0C0C"/></svg><svg fill="none" viewBox="0 0 24 24" id="bag" xmlns="http://www.w3.org/2000/svg"><defs><clipPath id="ba"><path fill="#fff" fill-opacity="0" d="M0 0h24v24H0z"/></clipPath></defs><path fill="none" d="M0 0h24v24H0z"/><g clip-path="url(#ba)"><path d="M18 6h-2c0-2.22-1.79-4-4-4S8 3.78 8 6H6a2 2 0 0 0-2 2v12c0 1.1.9 2 2 2h12c1.09 0 2-.9 2-2V8c0-1.11-.91-2-2-2Zm-6-2c1.09 0 2 .89 2 2h-4a2 2 0 0 1 2-2Zm6 16H6V8h2v2c0 .55.45 1 1 1 .54 0 1-.45 1-1V8h4v2c0 .55.45 1 1 1 .54 0 1-.45 1-1V8h2v12Z" fill="#202020"/></g></svg><svg fill="none" viewBox="0 0 25 24" id="close" xmlns="http://www.w3.org/2000/svg"><path d="M19.5 6.41 18.09 5l-5.59 5.59L6.91 5 5.5 6.41 11.09 12 5.5 17.59 6.91 19l5.59-5.59L18.09 19l1.41-1.41L13.91 12l5.59-5.59Z" fill="#0C0C0C"/></svg><svg fill="none" viewBox="0 0 24 24" id="favorite" xmlns="http://www.w3.org/2000/svg"><path d="m11.223 19.115-.001-.002c-2.595-2.353-4.668-4.235-6.104-5.99C3.693 11.38 3 9.885 3 8.323c0-2.527 1.972-4.5 4.5-4.5 1.437 0 2.832.674 3.739 1.739l.761.894.761-.894c.907-1.065 2.302-1.739 3.739-1.739 2.528 0 4.5 1.973 4.5 4.5 0 1.562-.693 3.057-2.118 4.8-1.436 1.757-3.509 3.641-6.103 6h-.002l-.774.7-.78-.71Z" fill="#fff" stroke="#202020" stroke-width="2"/></svg><svg fill="none" viewBox="0 0 25 24" id="menu" xmlns="http://www.w3.org/2000/svg"><path d="M3.5 18h18v-2h-18v2Zm0-5h18v-2h-18v2Zm0-7v2h18V6h-18Z" fill="#0C0C0C"/></svg><svg fill="none" viewBox="0 0 24 24" id="person" xmlns="http://www.w3.org/2000/svg"><defs><clipPath id="fa"><path fill="#fff" fill-opacity="0" d="M0 0h24v24H0z"/></clipPath></defs><path fill="none" d="M0 0h24v24H0z"/><g clip-path="url(#fa)"><path d="M16 8.5c0 2.21-1.79 4-4 4s-4-1.79-4-4V5c0-.83.66-1.5 1.5-1.5.51 0 .98.26 1.25.67.26-.41.73-.67 1.25-.67.51 0 .98.26 1.25.67.26-.41.73-.67 1.25-.67.83 0 1.5.67 1.5 1.5v3.5Zm-2 0V6h-4v2.5c0 1.1.9 2 2 2 1.09 0 2-.9 2-2Zm-2 5c2.53 0 4.7.69 6.38 1.55 1 .52 1.62 1.55 1.62 2.66v2.79H4v-2.79c0-1.11.61-2.14 1.61-2.66 1.68-.86 3.85-1.55 6.39-1.55Zm-6 4.21v.79h12v-.79c0-.38-.21-.71-.52-.88-1.19-.6-3.11-1.33-5.48-1.33-2.38 0-4.3.73-5.49 1.33-.31.17-.51.5-.51.88Z" fill="#202020" fill-rule="evenodd"/></g></svg><svg fill="none" viewBox="0 0 24 24" id="search" xmlns="http://www.w3.org/2000/svg"><defs><clipPath id="ga"><path fill="#fff" fill-opacity="0" d="M0 0h24v24H0z"/></clipPath></defs><path fill="none" d="M0 0h24v24H0z"/><g clip-path="url(#ga)"><path d="M15.75 14.25h-.79l-.28-.27a6.471 6.471 0 0 0 1.57-4.23 6.5 6.5 0 1 0-6.5 6.5c1.61 0 3.09-.59 4.23-1.57l.27.28v.79l5 4.99 1.49-1.49-4.99-5Zm-6 0c-2.49 0-4.5-2.01-4.5-4.5s2.01-4.5 4.5-4.5 4.5 2.01 4.5 4.5-2.01 4.5-4.5 4.5Z" fill="#0C0C0C"/></g></svg></svg>